<mxfile host="app.diagrams.net" modified="2021-12-22T11:01:50.277Z" agent="5.0 (Windows NT 10.0; Win64; x64) AppleWebKit/537.36 (KHTML, like Gecko) Chrome/95.0.4638.69 Safari/537.36 OPR/81.0.4196.61" etag="rqT7mlxF3ZZC_yRxHRQi" version="16.0.3" type="github">
  <diagram id="C5RBs43oDa-KdzZeNtuy" name="Page-1">
    <mxGraphModel dx="1381" dy="795" grid="1" gridSize="10" guides="1" tooltips="1" connect="1" arrows="1" fold="1" page="1" pageScale="1" pageWidth="900" pageHeight="1600" math="0" shadow="0">
      <root>
        <mxCell id="WIyWlLk6GJQsqaUBKTNV-0" />
        <mxCell id="WIyWlLk6GJQsqaUBKTNV-1" parent="WIyWlLk6GJQsqaUBKTNV-0" />
        <mxCell id="WIyWlLk6GJQsqaUBKTNV-2" value="" style="rounded=0;html=1;jettySize=auto;orthogonalLoop=1;fontSize=11;endArrow=block;endFill=0;endSize=8;strokeWidth=1;shadow=0;labelBackgroundColor=none;edgeStyle=orthogonalEdgeStyle;" parent="WIyWlLk6GJQsqaUBKTNV-1" source="WIyWlLk6GJQsqaUBKTNV-3" edge="1">
          <mxGeometry relative="1" as="geometry">
            <mxPoint x="220" y="170" as="targetPoint" />
          </mxGeometry>
        </mxCell>
        <mxCell id="WIyWlLk6GJQsqaUBKTNV-3" value="Pradžia" style="rounded=1;whiteSpace=wrap;html=1;fontSize=12;glass=0;strokeWidth=1;shadow=0;" parent="WIyWlLk6GJQsqaUBKTNV-1" vertex="1">
          <mxGeometry x="160" y="80" width="120" height="40" as="geometry" />
        </mxCell>
        <mxCell id="4HFLB4U_7-HEvq6KoyLl-2" style="edgeStyle=orthogonalEdgeStyle;rounded=0;orthogonalLoop=1;jettySize=auto;html=1;" edge="1" parent="WIyWlLk6GJQsqaUBKTNV-1" source="4HFLB4U_7-HEvq6KoyLl-0" target="4HFLB4U_7-HEvq6KoyLl-1">
          <mxGeometry relative="1" as="geometry" />
        </mxCell>
        <mxCell id="4HFLB4U_7-HEvq6KoyLl-0" value="Prašome žodžių kiekio n" style="shape=parallelogram;perimeter=parallelogramPerimeter;whiteSpace=wrap;html=1;fixedSize=1;" vertex="1" parent="WIyWlLk6GJQsqaUBKTNV-1">
          <mxGeometry x="160" y="170" width="120" height="60" as="geometry" />
        </mxCell>
        <mxCell id="4HFLB4U_7-HEvq6KoyLl-4" style="edgeStyle=orthogonalEdgeStyle;rounded=0;orthogonalLoop=1;jettySize=auto;html=1;entryX=0.008;entryY=0.65;entryDx=0;entryDy=0;entryPerimeter=0;" edge="1" parent="WIyWlLk6GJQsqaUBKTNV-1" source="4HFLB4U_7-HEvq6KoyLl-1" target="4HFLB4U_7-HEvq6KoyLl-3">
          <mxGeometry relative="1" as="geometry">
            <Array as="points">
              <mxPoint x="140" y="320" />
              <mxPoint x="140" y="439" />
            </Array>
          </mxGeometry>
        </mxCell>
        <mxCell id="4HFLB4U_7-HEvq6KoyLl-6" style="edgeStyle=orthogonalEdgeStyle;rounded=0;orthogonalLoop=1;jettySize=auto;html=1;entryX=1;entryY=0.5;entryDx=0;entryDy=0;" edge="1" parent="WIyWlLk6GJQsqaUBKTNV-1" source="4HFLB4U_7-HEvq6KoyLl-1" target="4HFLB4U_7-HEvq6KoyLl-0">
          <mxGeometry relative="1" as="geometry">
            <mxPoint x="300" y="200" as="targetPoint" />
            <Array as="points">
              <mxPoint x="290" y="320" />
              <mxPoint x="290" y="200" />
            </Array>
          </mxGeometry>
        </mxCell>
        <mxCell id="4HFLB4U_7-HEvq6KoyLl-1" value="n&amp;gt;0" style="rhombus;whiteSpace=wrap;html=1;" vertex="1" parent="WIyWlLk6GJQsqaUBKTNV-1">
          <mxGeometry x="180" y="280" width="80" height="80" as="geometry" />
        </mxCell>
        <mxCell id="4HFLB4U_7-HEvq6KoyLl-10" style="edgeStyle=orthogonalEdgeStyle;rounded=0;orthogonalLoop=1;jettySize=auto;html=1;entryX=0.5;entryY=0;entryDx=0;entryDy=0;" edge="1" parent="WIyWlLk6GJQsqaUBKTNV-1" source="4HFLB4U_7-HEvq6KoyLl-3" target="4HFLB4U_7-HEvq6KoyLl-9">
          <mxGeometry relative="1" as="geometry" />
        </mxCell>
        <mxCell id="4HFLB4U_7-HEvq6KoyLl-3" value="Duomenų įvedimo į masyvą funkcija&amp;nbsp;" style="shape=process;whiteSpace=wrap;html=1;backgroundOutline=1;" vertex="1" parent="WIyWlLk6GJQsqaUBKTNV-1">
          <mxGeometry x="160" y="400" width="120" height="60" as="geometry" />
        </mxCell>
        <mxCell id="4HFLB4U_7-HEvq6KoyLl-7" value="Ne" style="text;html=1;align=center;verticalAlign=middle;resizable=0;points=[];autosize=1;strokeColor=none;fillColor=none;" vertex="1" parent="WIyWlLk6GJQsqaUBKTNV-1">
          <mxGeometry x="260" y="300" width="30" height="20" as="geometry" />
        </mxCell>
        <mxCell id="4HFLB4U_7-HEvq6KoyLl-8" value="Taip" style="text;html=1;align=center;verticalAlign=middle;resizable=0;points=[];autosize=1;strokeColor=none;fillColor=none;" vertex="1" parent="WIyWlLk6GJQsqaUBKTNV-1">
          <mxGeometry x="140" y="300" width="40" height="20" as="geometry" />
        </mxCell>
        <mxCell id="4HFLB4U_7-HEvq6KoyLl-13" style="edgeStyle=orthogonalEdgeStyle;rounded=0;orthogonalLoop=1;jettySize=auto;html=1;entryX=0.5;entryY=0;entryDx=0;entryDy=0;" edge="1" parent="WIyWlLk6GJQsqaUBKTNV-1" source="4HFLB4U_7-HEvq6KoyLl-9" target="4HFLB4U_7-HEvq6KoyLl-12">
          <mxGeometry relative="1" as="geometry" />
        </mxCell>
        <mxCell id="4HFLB4U_7-HEvq6KoyLl-9" value="Funkcija žodžiams, kurie prasideda iš mažosios" style="shape=process;whiteSpace=wrap;html=1;backgroundOutline=1;" vertex="1" parent="WIyWlLk6GJQsqaUBKTNV-1">
          <mxGeometry x="160" y="510" width="120" height="60" as="geometry" />
        </mxCell>
        <mxCell id="4HFLB4U_7-HEvq6KoyLl-15" style="edgeStyle=orthogonalEdgeStyle;rounded=0;orthogonalLoop=1;jettySize=auto;html=1;entryX=0.5;entryY=0;entryDx=0;entryDy=0;" edge="1" parent="WIyWlLk6GJQsqaUBKTNV-1" source="4HFLB4U_7-HEvq6KoyLl-12" target="4HFLB4U_7-HEvq6KoyLl-14">
          <mxGeometry relative="1" as="geometry" />
        </mxCell>
        <mxCell id="4HFLB4U_7-HEvq6KoyLl-12" value="Funkcija, žodžiams surikiuoti" style="shape=process;whiteSpace=wrap;html=1;backgroundOutline=1;" vertex="1" parent="WIyWlLk6GJQsqaUBKTNV-1">
          <mxGeometry x="160" y="620" width="120" height="60" as="geometry" />
        </mxCell>
        <mxCell id="4HFLB4U_7-HEvq6KoyLl-14" value="Pabaiga" style="rounded=1;whiteSpace=wrap;html=1;" vertex="1" parent="WIyWlLk6GJQsqaUBKTNV-1">
          <mxGeometry x="160" y="720" width="120" height="60" as="geometry" />
        </mxCell>
        <mxCell id="4HFLB4U_7-HEvq6KoyLl-18" style="edgeStyle=orthogonalEdgeStyle;rounded=0;orthogonalLoop=1;jettySize=auto;html=1;entryX=0.5;entryY=0;entryDx=0;entryDy=0;" edge="1" parent="WIyWlLk6GJQsqaUBKTNV-1" source="4HFLB4U_7-HEvq6KoyLl-16" target="4HFLB4U_7-HEvq6KoyLl-17">
          <mxGeometry relative="1" as="geometry" />
        </mxCell>
        <mxCell id="4HFLB4U_7-HEvq6KoyLl-16" value="Žodžių įvesties funkcija" style="ellipse;whiteSpace=wrap;html=1;" vertex="1" parent="WIyWlLk6GJQsqaUBKTNV-1">
          <mxGeometry x="370" y="60" width="120" height="80" as="geometry" />
        </mxCell>
        <mxCell id="4HFLB4U_7-HEvq6KoyLl-20" style="edgeStyle=orthogonalEdgeStyle;rounded=0;orthogonalLoop=1;jettySize=auto;html=1;" edge="1" parent="WIyWlLk6GJQsqaUBKTNV-1" source="4HFLB4U_7-HEvq6KoyLl-17" target="4HFLB4U_7-HEvq6KoyLl-19">
          <mxGeometry relative="1" as="geometry" />
        </mxCell>
        <mxCell id="4HFLB4U_7-HEvq6KoyLl-17" value="string *A=new string[n]" style="rounded=0;whiteSpace=wrap;html=1;" vertex="1" parent="WIyWlLk6GJQsqaUBKTNV-1">
          <mxGeometry x="370" y="170" width="120" height="60" as="geometry" />
        </mxCell>
        <mxCell id="4HFLB4U_7-HEvq6KoyLl-19" value="return A;" style="ellipse;whiteSpace=wrap;html=1;" vertex="1" parent="WIyWlLk6GJQsqaUBKTNV-1">
          <mxGeometry x="370" y="260" width="120" height="80" as="geometry" />
        </mxCell>
        <mxCell id="4HFLB4U_7-HEvq6KoyLl-23" style="edgeStyle=orthogonalEdgeStyle;rounded=0;orthogonalLoop=1;jettySize=auto;html=1;entryX=0.5;entryY=0;entryDx=0;entryDy=0;" edge="1" parent="WIyWlLk6GJQsqaUBKTNV-1" source="4HFLB4U_7-HEvq6KoyLl-21" target="4HFLB4U_7-HEvq6KoyLl-22">
          <mxGeometry relative="1" as="geometry" />
        </mxCell>
        <mxCell id="4HFLB4U_7-HEvq6KoyLl-21" value="Žodžių paieška, kurie prasideda mažąja raide" style="ellipse;whiteSpace=wrap;html=1;" vertex="1" parent="WIyWlLk6GJQsqaUBKTNV-1">
          <mxGeometry x="370" y="400" width="120" height="80" as="geometry" />
        </mxCell>
        <mxCell id="4HFLB4U_7-HEvq6KoyLl-25" style="edgeStyle=orthogonalEdgeStyle;rounded=0;orthogonalLoop=1;jettySize=auto;html=1;" edge="1" parent="WIyWlLk6GJQsqaUBKTNV-1" source="4HFLB4U_7-HEvq6KoyLl-22" target="4HFLB4U_7-HEvq6KoyLl-24">
          <mxGeometry relative="1" as="geometry" />
        </mxCell>
        <mxCell id="4HFLB4U_7-HEvq6KoyLl-22" value="count = 0;" style="rounded=0;whiteSpace=wrap;html=1;" vertex="1" parent="WIyWlLk6GJQsqaUBKTNV-1">
          <mxGeometry x="370" y="510" width="120" height="60" as="geometry" />
        </mxCell>
        <mxCell id="4HFLB4U_7-HEvq6KoyLl-29" style="edgeStyle=orthogonalEdgeStyle;rounded=0;orthogonalLoop=1;jettySize=auto;html=1;" edge="1" parent="WIyWlLk6GJQsqaUBKTNV-1" source="4HFLB4U_7-HEvq6KoyLl-24" target="4HFLB4U_7-HEvq6KoyLl-26">
          <mxGeometry relative="1" as="geometry" />
        </mxCell>
        <mxCell id="4HFLB4U_7-HEvq6KoyLl-24" value="Sukame ciklą, naudodami „islower“ funkciją" style="rounded=0;whiteSpace=wrap;html=1;" vertex="1" parent="WIyWlLk6GJQsqaUBKTNV-1">
          <mxGeometry x="370" y="610" width="120" height="60" as="geometry" />
        </mxCell>
        <mxCell id="4HFLB4U_7-HEvq6KoyLl-28" style="edgeStyle=orthogonalEdgeStyle;rounded=0;orthogonalLoop=1;jettySize=auto;html=1;" edge="1" parent="WIyWlLk6GJQsqaUBKTNV-1" source="4HFLB4U_7-HEvq6KoyLl-26" target="4HFLB4U_7-HEvq6KoyLl-27">
          <mxGeometry relative="1" as="geometry">
            <Array as="points">
              <mxPoint x="340" y="740" />
            </Array>
          </mxGeometry>
        </mxCell>
        <mxCell id="4HFLB4U_7-HEvq6KoyLl-32" style="edgeStyle=orthogonalEdgeStyle;rounded=0;orthogonalLoop=1;jettySize=auto;html=1;entryX=0.5;entryY=0;entryDx=0;entryDy=0;" edge="1" parent="WIyWlLk6GJQsqaUBKTNV-1" source="4HFLB4U_7-HEvq6KoyLl-26" target="4HFLB4U_7-HEvq6KoyLl-31">
          <mxGeometry relative="1" as="geometry">
            <Array as="points">
              <mxPoint x="520" y="740" />
            </Array>
          </mxGeometry>
        </mxCell>
        <mxCell id="4HFLB4U_7-HEvq6KoyLl-26" value="count=0" style="rhombus;whiteSpace=wrap;html=1;" vertex="1" parent="WIyWlLk6GJQsqaUBKTNV-1">
          <mxGeometry x="390" y="700" width="80" height="80" as="geometry" />
        </mxCell>
        <mxCell id="4HFLB4U_7-HEvq6KoyLl-27" value="Žodžių nerasta&lt;br&gt;return 0;" style="rounded=0;whiteSpace=wrap;html=1;" vertex="1" parent="WIyWlLk6GJQsqaUBKTNV-1">
          <mxGeometry x="280" y="800" width="120" height="60" as="geometry" />
        </mxCell>
        <mxCell id="4HFLB4U_7-HEvq6KoyLl-30" value="Taip" style="text;html=1;align=center;verticalAlign=middle;resizable=0;points=[];autosize=1;strokeColor=none;fillColor=none;" vertex="1" parent="WIyWlLk6GJQsqaUBKTNV-1">
          <mxGeometry x="350" y="720" width="40" height="20" as="geometry" />
        </mxCell>
        <mxCell id="4HFLB4U_7-HEvq6KoyLl-31" value="return N;" style="rounded=0;whiteSpace=wrap;html=1;" vertex="1" parent="WIyWlLk6GJQsqaUBKTNV-1">
          <mxGeometry x="460" y="800" width="120" height="60" as="geometry" />
        </mxCell>
        <mxCell id="4HFLB4U_7-HEvq6KoyLl-35" style="edgeStyle=orthogonalEdgeStyle;rounded=0;orthogonalLoop=1;jettySize=auto;html=1;entryX=0.5;entryY=0;entryDx=0;entryDy=0;" edge="1" parent="WIyWlLk6GJQsqaUBKTNV-1" source="4HFLB4U_7-HEvq6KoyLl-33" target="4HFLB4U_7-HEvq6KoyLl-34">
          <mxGeometry relative="1" as="geometry" />
        </mxCell>
        <mxCell id="4HFLB4U_7-HEvq6KoyLl-33" value="Rikiavimo funkcija" style="ellipse;whiteSpace=wrap;html=1;" vertex="1" parent="WIyWlLk6GJQsqaUBKTNV-1">
          <mxGeometry x="660" y="60" width="120" height="80" as="geometry" />
        </mxCell>
        <mxCell id="4HFLB4U_7-HEvq6KoyLl-37" style="edgeStyle=orthogonalEdgeStyle;rounded=0;orthogonalLoop=1;jettySize=auto;html=1;entryX=0.5;entryY=0;entryDx=0;entryDy=0;" edge="1" parent="WIyWlLk6GJQsqaUBKTNV-1" source="4HFLB4U_7-HEvq6KoyLl-34" target="4HFLB4U_7-HEvq6KoyLl-36">
          <mxGeometry relative="1" as="geometry" />
        </mxCell>
        <mxCell id="4HFLB4U_7-HEvq6KoyLl-34" value="c=N[i];&lt;br&gt;N[i]=N[j];&lt;br&gt;N[j]=c;" style="rounded=0;whiteSpace=wrap;html=1;" vertex="1" parent="WIyWlLk6GJQsqaUBKTNV-1">
          <mxGeometry x="660" y="170" width="120" height="60" as="geometry" />
        </mxCell>
        <mxCell id="4HFLB4U_7-HEvq6KoyLl-36" value="return N;" style="rounded=0;whiteSpace=wrap;html=1;" vertex="1" parent="WIyWlLk6GJQsqaUBKTNV-1">
          <mxGeometry x="660" y="270" width="120" height="60" as="geometry" />
        </mxCell>
      </root>
    </mxGraphModel>
  </diagram>
</mxfile>
